<?xml version="1.0" encoding="utf-8"?>
<!-- Generator: Adobe Illustrator 19.1.0, SVG Export Plug-In . SVG Version: 6.00 Build 0)  -->
<svg version="1.1" id="Layer_1" xmlns="http://www.w3.org/2000/svg" xmlns:xlink="http://www.w3.org/1999/xlink" x="0px" y="0px"
	 width="1000px" height="1000px" viewBox="0 0 1000 1000" style="enable-background:new 0 0 1000 1000;" xml:space="preserve">
<rect width="1000" height="1000" fill="#EF4444" rx="200" />
<g fill="#ffffff" transform="translate(175, 175) scale(0.65)">
	<circle cx="487" cy="488.9" r="78"/>
	<path d="M869.3,273.2L869.3,273.2c-30.5-54-118.1-67.7-228.7-44.8C607.4,120.7,553.1,50,491.2,50h0c-61.9-1-117.5,68.3-152.9,175.2
		c-109.6-24.8-197.2-12.8-228.7,40.4l0,0c-31.5,53.3,0.4,135.9,75.2,220C108,568.4,74.4,650.5,104.9,704.5
		c30.4,53.9,117.8,67.6,228,44.9c33.3,107.7,87.6,177.7,149.5,178.3c62,0.6,117.6-68.4,153.1-175.5
		c110.1,25.2,198.2,13.2,229.7-40.2c31.5-53.4-0.4-136.1-75.5-220.3C866.2,409.1,899.7,327.1,869.3,273.2z M833,293.6L833,293.6
		c26,44.2-0.3,110.7-60.4,179.5c-29-30-63.2-60-101.8-88.7c-4.6-47.4-12.5-91.8-23.2-131.8C737.8,236.7,808,249.3,833,293.6z
		 M568.6,633.2c-27.9,15.7-55.7,29.6-83.1,41.7c-27.2-12.6-54.8-27-82.3-43.3c-27.9-16.5-54.1-33.8-78.5-51.8
		c-2.7-29.7-3.9-60.7-3.6-92.5c0.3-32,2.2-63.1,5.5-92.9c24.6-17.4,51.1-34.1,79.1-50c28-15.8,56-29.7,83.5-41.8
		c27.3,12.6,54.9,27.1,82.6,43.4c27.4,16.2,53.2,33.2,77.2,50.8c2.7,30.1,4,61.4,3.7,93.7c-0.3,32.1-2.2,63.3-5.5,93.2
		C622.6,600.9,596.4,617.5,568.6,633.2z M643.1,614.2c-5.8,39.3-14,75.8-24.2,108.5c-33.3-8.2-68.8-20.1-105.4-35.4
		c22-10.4,44.1-21.8,66.2-34.2C601.8,640.6,623,627.6,643.1,614.2z M457.1,686.7c-37.2,14.8-73.3,26-107,33.5
		c-9.7-33.2-17.2-70.2-22.2-109.9c20.2,14.1,41.4,27.7,63.6,40.8C413.4,664.1,435.3,675.9,457.1,686.7z M298.3,487
		c-0.3,25.3,0.4,50,1.9,74.1c-31-24.6-58.5-50-81.7-75.2c23.7-24.7,51.6-49.5,83.2-73.5C299.7,436.8,298.5,461.6,298.3,487
		C298.3,487,298.3,487,298.3,487z M330.4,363.9c5.8-39.6,14.1-76.3,24.4-109.3c33.5,8.2,69.3,20.1,106.2,35.6
		c-22.1,10.4-44.3,21.9-66.6,34.4C372.2,337.2,350.8,350.4,330.4,363.9z M517.5,290.8c36.8-14.6,72.6-25.8,106-33.3
		c9.6,32.9,17.1,69.5,22.1,108.8c-19.8-13.7-40.6-27.1-62.3-39.9c0,0,0,0,0,0C561.3,313.5,539.3,301.6,517.5,290.8z M673.3,415.5
		c31.4,24.8,59.2,50.4,82.7,75.9c-23.9,25-52.2,50.1-84.1,74.3c2-24.3,3.2-49.3,3.5-74.8C675.6,465.1,674.9,440,673.3,415.5z
		 M490.7,92L490.7,92c50.8,1,95.8,55.6,125.3,142.2c-40.2,10-82.9,24.4-126.7,43.3c-43.7-19.9-86.4-35.2-126.7-46
		C394,145.6,440,91,490.7,92z M145.4,286.8c25.8-43.7,95.9-55,185.4-37.4c-11.6,40-20.4,84.6-25.9,132.2
		c-38.7,27.7-73.2,56.7-102.5,85.9C143.6,397.5,119.5,330.5,145.4,286.8L145.4,286.8z M141.1,684c-25-44.3,0.5-110.9,60.8-179.9
		c28.7,29.8,62.6,59.6,100.8,88c4.6,47.8,12.5,92.6,23.3,132.9C236,740.9,166.1,728.3,141.1,684z M482.9,886.1
		c-50.8-0.5-95.8-55.8-125.3-142.4c40.5-10,83.5-24.6,127.6-43.7c43.4,19.8,85.9,35.2,125.9,46C579.8,832.2,533.7,886.6,482.9,886.1
		z M829.4,690.9c-25.9,43.8-96.5,55.1-186.5,37.2c11.5-39.8,20.3-84.1,25.8-131.5c39.2-27.9,74-57.2,103.5-86.7
		C831.2,580,855.3,647.1,829.4,690.9z"/>
</g>
</svg>
